<svg xmlns="http://www.w3.org/2000/svg" viewBox="0 0 192 192">
  <path fill="#fcceff" d="M 91.351562 7.949219 C 81.375 10.125 73.875 19.347656 73.875 29.550781 C 73.875 36.152344 77.324219 42.976562 82.726562 47.027344 L 84.976562 48.675781 L 84.976562 73.722656 L 72.675781 73.722656 C 59.175781 73.722656 55.199219 74.023438 49.425781 75.449219 C 26.324219 81.300781 9.824219 100.574219 7.726562 124.425781 C 5.027344 154.050781 27.078125 180.824219 56.851562 184.050781 C 61.726562 184.574219 130.277344 184.574219 135.152344 184.050781 C 155.175781 181.875 172.800781 168.675781 180.300781 150.152344 C 193.050781 118.726562 175.351562 83.703125 142.574219 75.453125 C 136.875 74.027344 132.898438 73.726562 119.324219 73.726562 L 107.023438 73.726562 L 107.023438 48.675781 L 109.273438 47.027344 C 114.671875 42.976562 118.125 36.152344 118.125 29.550781 C 118.125 28.574219 117.898438 26.550781 117.601562 25.125 C 115.125 13.125 103.351562 5.398438 91.351562 7.949219 Z M 134.851562 96.449219 C 141.75 97.648438 147.527344 100.648438 152.625 105.75 C 157.726562 110.851562 160.726562 116.625 161.925781 123.523438 C 162.902344 129.222656 162.375 135.074219 160.351562 140.699219 C 157.203125 149.398438 149.402344 157.199219 140.703125 160.347656 C 134.851562 162.449219 135.378906 162.449219 96.003906 162.449219 C 56.628906 162.449219 57.078125 162.449219 51.230469 160.347656 C 42.53125 157.199219 34.730469 149.398438 31.582031 140.699219 C 24.605469 121.5 36.082031 100.875 56.183594 96.597656 C 58.882812 96.074219 61.808594 95.996094 95.484375 95.996094 C 126.308594 95.921875 132.382812 95.996094 134.859375 96.445312 Z M 134.851562 96.449219 "/>
  <path fill="#fcceff" d="M 60.148438 118.425781 C 58.5 118.875 55.574219 120.601562 54.597656 121.652344 C 52.648438 123.902344 51.898438 126.078125 51.898438 129.003906 C 51.898438 131.480469 51.972656 132.078125 53.023438 134.105469 C 54.898438 138.003906 58.347656 140.03125 62.773438 140.105469 C 64.875 140.105469 65.773438 139.957031 67.273438 139.207031 C 71.324219 137.332031 73.648438 133.65625 73.648438 129.230469 C 73.648438 124.804688 71.546875 121.355469 67.796875 119.480469 C 65.472656 118.28125 62.246094 117.832031 60.148438 118.429688 Z M 60.148438 118.425781 "/>
  <path fill="#fcceff" d="M 126.601562 118.425781 C 124.953125 118.875 122.027344 120.601562 121.050781 121.652344 C 119.101562 123.902344 118.351562 126.078125 118.351562 129.003906 C 118.351562 131.480469 118.425781 132.078125 119.476562 134.105469 C 121.351562 138.003906 124.800781 140.03125 129.226562 140.105469 C 131.328125 140.105469 132.226562 139.957031 133.726562 139.207031 C 137.777344 137.332031 140.101562 133.65625 140.101562 129.230469 C 140.101562 124.804688 138 121.355469 134.25 119.480469 C 131.925781 118.28125 128.699219 117.832031 126.601562 118.429688 Z M 126.601562 118.425781 "/>
</svg>
